<svg xmlns="http://www.w3.org/2000/svg" viewBox="0 0 750 500"><g id="freepik--background-complete--inject-76"><polygon points="472.03 374.73 451.64 463.24 460.26 463.22 480.69 375.56 472.03 374.73" style="fill:#e0e0e0"></polygon><polygon points="509.22 374.73 529.68 463.24 537.87 463.24 518.07 374.73 509.22 374.73" style="fill:#e0e0e0"></polygon><polygon points="458.27 308.25 469.88 369.19 483.07 369.19 470.67 308.25 458.27 308.25" style="fill:#e0e0e0"></polygon><polygon points="256.1 374.73 239.47 463.24 247.94 463.24 265.31 374.73 256.1 374.73" style="fill:#e0e0e0"></polygon><polygon points="291.06 374.73 310.07 462.75 318.44 462.75 300.08 374.73 291.06 374.73" style="fill:#e0e0e0"></polygon><polygon points="242.34 308.25 253.94 369.19 267.13 369.19 254.74 308.25 242.34 308.25" style="fill:#e0e0e0"></polygon><polygon points="216.22 302.7 218.59 313.79 483.46 313.79 480.37 302.7 216.22 302.7" style="fill:#ebebeb"></polygon><polygon points="221.28 324.22 224.08 335.3 487.15 335.3 484.76 324.22 221.28 324.22" style="fill:#ebebeb"></polygon><polygon points="226.51 346.5 229.12 357.58 491.37 357.58 488.89 346.5 226.51 346.5" style="fill:#ebebeb"></polygon><rect x="246.56" y="369.18" width="282.8" height="11.08" style="fill:#ebebeb"></rect><path d="M160.65,452.46c15-13.6,15.95-35.4,12.83-54.47-.52-3.19-.6-6.61-2.48-9.22s-5.68-4.07-8.37-2.35c-2.23,1.42-2.91,4.32-3.95,6.77a18.71,18.71,0,0,1-6.58,8.13c-1.9,1.32-4.33,2.29-6.49,1.44-3-1.16-3.77-4.93-4.16-8.12q-1.08-8.89-2.17-17.8c-.39-3.18-.8-6.43-2.18-9.32s-3.93-5.42-7.06-5.88-6.65,1.77-6.89,5a29.71,29.71,0,0,0,.42,4c.08,1.33-.35,2.87-1.55,3.4s-2.62-.2-3.69-1c-3.69-2.79-6.45-6.64-9.06-10.48s-5.18-7.8-8.61-10.92-7.91-5.37-12.49-5-9.09,3.76-9.66,8.38,2.62,8.85,5.94,12.11A71,71,0,0,0,101,379.21a6,6,0,0,1,2.82,2.34c1,2-.78,4.4-2.78,5.37-2.27,1.09-4.87,1.18-7.32,1.79s-5,2.05-5.62,4.51c-.89,3.42,2.27,6.48,5.23,8.37a61.43,61.43,0,0,0,19.34,8.07c2.45.56,5,1,7.11,2.39s3.61,4.12,2.75,6.51-3.68,3.48-6.19,3.34-4.88-1.19-7.32-1.77c-4.59-1.09-10.19-.06-12.51,4.08a10.13,10.13,0,0,0,.08,9,23.29,23.29,0,0,0,5.83,7.24,61.59,61.59,0,0,0,28.48,15c10.59,2.22,20.11,2,29.71-3" style="fill:#ebebeb"></path><path d="M162.73,466.63a141,141,0,0,0-8.57-25.55,285.23,285.23,0,0,0-15.26-29.23l-4.4-7.46c-1.44-2.44-2.88-4.87-4.43-7.15a144.87,144.87,0,0,0-9.66-12.61c-3.27-3.87-6.51-7.41-9.57-10.71s-6-6.3-8.75-8.93a114.11,114.11,0,0,0-14-11.44c-1.75-1.21-3.14-2.11-4.09-2.71l-1.09-.67a1.69,1.69,0,0,0-.38-.21,2.14,2.14,0,0,0,.35.26l1,.72c.93.63,2.3,1.56,4,2.8a122.13,122.13,0,0,1,13.84,11.55c2.74,2.65,5.63,5.67,8.67,9s6.27,6.86,9.51,10.72a145.23,145.23,0,0,1,9.6,12.59c1.54,2.27,3,4.68,4.41,7.13l4.39,7.45a296.35,296.35,0,0,1,15.28,29.15,144.19,144.19,0,0,1,8.66,25.42" style="fill:#e0e0e0"></path><path d="M129.9,397.24a7,7,0,0,0,.13-1.4c.06-.9.09-2.2.11-3.82.05-3.22,0-7.68-.17-12.59s-.15-9.36-.06-12.57c0-1.61.09-2.91.13-3.81a6.45,6.45,0,0,0,0-1.41,6.57,6.57,0,0,0-.23,1.39c-.11.89-.22,2.2-.32,3.81-.2,3.22-.23,7.68-.11,12.6s.25,9.23.35,12.58c0,1.52.05,2.79.07,3.82A6.85,6.85,0,0,0,129.9,397.24Z" style="fill:#e0e0e0"></path><path d="M88,394.86a9.05,9.05,0,0,0,1.65,0c1.07,0,2.6-.11,4.5-.13,3.8-.08,9,0,14.84.34s11,.88,14.78,1.38c1.89.24,3.41.47,4.46.62a8.94,8.94,0,0,0,1.65.19,8.78,8.78,0,0,0-1.61-.42c-1-.22-2.56-.52-4.44-.81-3.77-.6-9-1.21-14.81-1.56a143.8,143.8,0,0,0-14.88-.16c-1.91.08-3.44.21-4.5.32A8.58,8.58,0,0,0,88,394.86Z" style="fill:#e0e0e0"></path><path d="M153.56,440.39a2.05,2.05,0,0,0,.22-.53c.13-.43.3-.94.51-1.57.43-1.37,1-3.36,1.69-5.83,1.38-4.94,3.05-11.82,4.8-19.44s3.36-14.51,4.63-19.47c.62-2.41,1.13-4.39,1.52-5.87.16-.64.29-1.17.4-1.6a2.37,2.37,0,0,0,.1-.57,2.57,2.57,0,0,0-.22.54c-.13.42-.3.94-.5,1.56-.44,1.37-1,3.36-1.7,5.83-1.37,4.94-3,11.82-4.8,19.44s-3.36,14.51-4.63,19.47l-1.51,5.87c-.17.64-.3,1.17-.41,1.6A2.45,2.45,0,0,0,153.56,440.39Z" style="fill:#e0e0e0"></path><path d="M97,429.87a2.3,2.3,0,0,0,.57.15l1.65.33,6.06,1.14c5.12,1,12.17,2.37,20,3.93s14.87,2.92,20,3.77c2.57.43,4.66.76,6.1.95l1.66.22a2.19,2.19,0,0,0,.59,0,2.3,2.3,0,0,0-.57-.15l-1.64-.33-6.06-1.13c-5.12-1-12.18-2.37-20-3.94s-14.87-2.91-20-3.77c-2.57-.43-4.65-.75-6.1-.95l-1.66-.22A2.21,2.21,0,0,0,97,429.87Z" style="fill:#e0e0e0"></path><rect x="127.24" y="51.66" width="213.59" height="283.18" transform="translate(-4.6 5.71) rotate(-1.38)" style="fill:#e0e0e0"></rect><rect x="143.85" y="64.89" width="213.59" height="283.18" transform="translate(-4.91 6.11) rotate(-1.38)" style="fill:#ebebeb"></rect><path d="M537.89,170h93.75s-8.29-15.08-32.42-12.89c-23.05,2.1-24.22-7.42-35.94-8.59S541.8,156.36,537.89,170Z" style="fill:#ebebeb"></path><path d="M510.21,228.92h61.33s-5.43-9.87-21.21-8.43c-15.08,1.37-15.84-4.85-23.51-5.62S512.77,220,510.21,228.92Z" style="fill:#ebebeb"></path><path d="M423.38,110.85H540.87s-10.38-18.91-40.63-16.16c-28.88,2.63-30.35-9.3-45-10.77S428.28,93.71,423.38,110.85Z" style="fill:#e0e0e0"></path></g><g id="freepik--Floor--inject-76"><path d="M671.56,463.24c0,.14-127.51.26-284.76.26s-284.8-.12-284.8-.26S229.49,463,386.8,463,671.56,463.09,671.56,463.24Z" style="fill:#263238"></path></g><g id="freepik--Selfie--inject-76"><rect x="145.6" y="46.95" width="213.59" height="283.18" transform="translate(-23.08 35.69) rotate(-7.74)" style="fill:#fafafa"></rect><path d="M377.27,314.46c-.28-2-15.63-114.31-38.35-280.57l.26.2L127.57,62.86h0l.22-.3C141.94,167,155.08,263.9,165.84,343.18l-.24-.18,211.67-28.54-211.62,29-.21,0,0-.21C154.63,264,141.46,167.11,127.25,62.64l0-.25.25,0h0L339.12,33.63l.23,0,0,.23C361.83,200.12,377,312.41,377.27,314.46Z" style="fill:#263238"></path><path d="M156,87.61a3.52,3.52,0,0,0,1.63-3.49,3.28,3.28,0,1,0-6.5.86,3.49,3.49,0,0,0,2.51,3,5.25,5.25,0,0,0-3.89,4.37,7.46,7.46,0,0,0,4.84,1.82l2-.26a7.48,7.48,0,0,0,4.24-3.07A5.15,5.15,0,0,0,156,87.61Z" style="fill:#455a64"></path><path d="M155.59,94.06c0-.06.65-.13,1.73-.58a7.46,7.46,0,0,0,3.57-3.24,7.26,7.26,0,0,0,.06-6.9,7.16,7.16,0,0,0-2.94-3,7.14,7.14,0,0,0-8.4,1.14,7.13,7.13,0,0,0-2,3.64,7.28,7.28,0,0,0,1.9,6.64,7.45,7.45,0,0,0,4.3,2.16c1.16.15,1.82,0,1.82.1a1.69,1.69,0,0,1-.47.1,6,6,0,0,1-1.38,0,7.4,7.4,0,0,1-4.56-2.1,7.63,7.63,0,0,1-1.89-3,7.74,7.74,0,0,1-.24-4,7.6,7.6,0,0,1,2.17-3.93,7.68,7.68,0,0,1,9.06-1.23,7.68,7.68,0,0,1,4,7.17,7.55,7.55,0,0,1-4.86,6.63,6.61,6.61,0,0,1-1.33.34A1.46,1.46,0,0,1,155.59,94.06Z" style="fill:#455a64"></path><rect x="172.5" y="79.56" width="59.88" height="2.99" transform="translate(-9.07 27.98) rotate(-7.74)" style="fill:#455a64"></rect><path d="M327,58.58a1.3,1.3,0,1,1-1.46-1.11A1.3,1.3,0,0,1,327,58.58Z" style="fill:#455a64"></path><path d="M327.59,63.21a1.3,1.3,0,1,1-1.46-1.11A1.3,1.3,0,0,1,327.59,63.21Z" style="fill:#455a64"></path><path d="M328.22,67.83a1.3,1.3,0,1,1-1.46-1.11A1.29,1.29,0,0,1,328.22,67.83Z" style="fill:#455a64"></path><path d="M210.06,317.72l-2.3-.69a6,6,0,1,1,2.51-5.64,6.07,6.07,0,0,1-1,4.22Zm-6.59-11.13a5.68,5.68,0,1,0,4.13,10l.08-.06,1.7.51-.57-1.53.07-.09a5.67,5.67,0,0,0-5.41-8.87Z" style="fill:#263238"></path><path d="M223.93,315l-3.27-5.77-5.22-3.67L226.77,304Zm-7.38-9.17L221,309l2.78,4.91,2.43-9.37Z" style="fill:#263238"></path><rect x="219.93" y="306.48" width="7.44" height="0.42" transform="translate(-145.33 217.63) rotate(-40.33)" style="fill:#263238"></rect><path d="M266.5,300.85a2.34,2.34,0,1,1-2.61-1.94A2.29,2.29,0,0,1,266.5,300.85Z" style="fill:#263238"></path><path d="M273.68,299.9a2.34,2.34,0,0,1-4.63.61,2.34,2.34,0,0,1,4.63-.61Z" style="fill:#263238"></path><path d="M280.85,299a2.34,2.34,0,1,1-2.61-1.93A2.3,2.3,0,0,1,280.85,299Z" style="fill:#263238"></path><path d="M360,298l-5.33-4.05L350.86,299,349,285.51l9.14-1.24Zm-5.41-4.64.17.13,4.69,3.57-1.67-12.27-8.31,1.13,1.63,12Z" style="fill:#263238"></path><path d="M190.94,310a3.54,3.54,0,0,0-6.89,1.12,3.54,3.54,0,0,0-6.94.76,4.78,4.78,0,0,0,1.3,3.3,13.86,13.86,0,0,0,2.82,2.29c1.4,1,2.7,1.86,4.11,2.81,1.1-1.29,2-2.5,3.12-3.79a14.25,14.25,0,0,0,2.11-3A4.83,4.83,0,0,0,190.94,310Z" style="fill:#FF725E"></path><rect x="160.54" y="94.83" width="184.11" height="187.29" transform="matrix(0.99, -0.13, 0.13, 0.99, -23.07, 35.71)" style="fill:#e0e0e0"></rect><path d="M194.29,170c-2.33,11-2.41,26.92-1.83,47.38.1,3.77,36.19-25.15,36.19-25.15l5.26,32.67s-25.46,25.65-48.61,24.42c-16.05-.85-18.25-23.44-17.19-41.37,1-17.3,2.95-35.86,5.92-45.12" style="fill:#ffbe9d"></path><path d="M192.57,178.22l-20.54-7s2.54-17.25,5.81-17.19c0,0,1.85.54,1.37,1.82,0,0,1.36-2.4,3.25-1.52s1.06,3.39,1.06,3.39,6-18,8.48-17c2.13.86,1,2.53-3,14.63,0,0-1.7,5.7-.34,4.88s7.08-11.47,9-13.85c1-1.29,2.69.92,1.06,4.25-1.37,2.78-5.12,10.37-5.26,12a4.74,4.74,0,0,0,.27,1.36c.43.9,1.45,3.37.47,7.92-.27,1.28-1.59,6.32-1.59,6.32" style="fill:#ffbe9d"></path><path d="M188.73,175.22a3.62,3.62,0,0,1-.73-.77,23,23,0,0,1-1.67-2.35,25.22,25.22,0,0,1-1.92-3.83,24.07,24.07,0,0,1-.82-2.4c-.12-.42-.24-.85-.33-1.31a3,3,0,0,1,0-1.47,1.62,1.62,0,0,1,1.31-1.22,2.46,2.46,0,0,1,1.59.53,12.35,12.35,0,0,1,4.52,5.9l-.27,0a4.84,4.84,0,0,1,1.65-1.34c.45-.21.72-.26.72-.23a6.52,6.52,0,0,0-2.12,1.76l-.17.22-.11-.26a12.88,12.88,0,0,0-2.4-3.76,12.6,12.6,0,0,0-2.1-1.83,1.94,1.94,0,0,0-1.25-.43,1.1,1.1,0,0,0-.87.85,5.06,5.06,0,0,0,.31,2.49q.34,1.25.78,2.37a28,28,0,0,0,1.79,3.81C187.84,174,188.8,175.16,188.73,175.22Z" style="fill:#eb996e"></path><path d="M183.05,158.9a3.79,3.79,0,0,1,0,1c0,.68-.06,1.65-.15,2.85s-.21,2.63-.4,4.22a21.46,21.46,0,0,1-.39,2.51,2.15,2.15,0,0,1-.86,1.19,1.35,1.35,0,0,1-1.56,0,2.26,2.26,0,0,1-.76-1.3,9.8,9.8,0,0,1-.2-1.35c-.08-.87-.11-1.71-.12-2.51,0-1.6,0-3,.06-4.24s.1-2.05.13-2.84a5.38,5.38,0,0,1,.1-1.05,3.56,3.56,0,0,1,.11,1.05c0,.67,0,1.65,0,2.85s0,2.63,0,4.22c0,.79.06,1.62.15,2.47a8.83,8.83,0,0,0,.19,1.27,1.78,1.78,0,0,0,.57,1,.81.81,0,0,0,1,0,1.61,1.61,0,0,0,.65-.91,20.18,20.18,0,0,0,.4-2.41c.21-1.58.38-3,.52-4.19s.22-2.05.3-2.83A4.89,4.89,0,0,1,183.05,158.9Z" style="fill:#eb996e"></path><path d="M178.61,163.56a3.86,3.86,0,0,1,.16,2.34,7.56,7.56,0,0,1-.32,1.16,3,3,0,0,1-.78,1.21,1.08,1.08,0,0,1-.86.27,1.11,1.11,0,0,1-.75-.57,7.85,7.85,0,0,1-.53-1.57,19.53,19.53,0,0,1-.65-5.58,7.3,7.3,0,0,1,.32-2.31,33.28,33.28,0,0,0,.83,7.76,8.7,8.7,0,0,0,.47,1.44.52.52,0,0,0,.87.19,2.62,2.62,0,0,0,.68-1,7.48,7.48,0,0,0,.36-1.07A13.68,13.68,0,0,0,178.61,163.56Z" style="fill:#eb996e"></path><path d="M188,176.66c-.05.09-.73-.38-2-.7a4.23,4.23,0,0,0-2.18,0,4,4,0,0,0-2.15,1.54l-.44.61,0-.75c0-.28,0-.58-.07-.88a9.47,9.47,0,0,0-2.31-5.09c-1-1.1-1.78-1.57-1.73-1.64a5,5,0,0,1,2,1.39,9.13,9.13,0,0,1,2.56,5.28c.05.32.05.64.07.94l-.48-.14a4.27,4.27,0,0,1,4.87-1.6,4.73,4.73,0,0,1,.84.34,2.78,2.78,0,0,1,.58.33C187.85,176.51,188,176.63,188,176.66Z" style="fill:#eb996e"></path><path d="M307.51,275.53l-2.36-11.74-5-44.41,13-25.29-1.84-2.15c-14.94-18.2-29-13.72-35.18-13.52l-31,2.9h0c-15.87,2.09-19.47,4.37-30.51,17.32l-20.42,17.88,5.87,37.08,27.39-15.68,4.94,32.66-1.22,15.31" style="fill:#FF725E"></path><path d="M351.86,235.37s-18.1-21.52-43.24-46.53l-12.16,33.42s28.32,37.35,35.71,49.92l24.25-3.3Z" style="fill:#ffbe9d"></path><path d="M223.63,190.54c.05,0-.46.68-1.06,2a16.63,16.63,0,0,0-1.36,6,35.27,35.27,0,0,0,1,9.13c.76,3.41,1.46,7.19,2.16,11.15,1.37,7.91,2.6,15.07,3.51,20.33l1.06,6.16c.11.69.21,1.24.28,1.68a2,2,0,0,1,.07.59,2.82,2.82,0,0,1-.17-.57c-.09-.38-.23-.94-.38-1.66-.32-1.44-.73-3.54-1.22-6.13-1-5.19-2.25-12.37-3.66-20.31-.71-4-1.39-7.73-2.12-11.14a34.72,34.72,0,0,1-.92-9.26,16.06,16.06,0,0,1,1.55-6.07,10.31,10.31,0,0,1,.87-1.47A3,3,0,0,1,223.63,190.54Z" style="fill:#263238"></path><path d="M259.2,193.63h0a14.15,14.15,0,0,0,11.93-17L269.08,167s10.95-3.26,9.57-14.47S271.84,116,271.84,116h0a39.23,39.23,0,0,0-38.4,10.21L232,127.67l11.48,54.83A14.15,14.15,0,0,0,259.2,193.63Z" style="fill:#ffbe9d"></path><path d="M270.77,136.38a1.64,1.64,0,1,1,2.28-.43A1.64,1.64,0,0,1,270.77,136.38Z" style="fill:#263238"></path><path d="M274.33,133.29c-.15.22-1.36-.48-2.9-.27s-2.55,1.15-2.75,1,0-.45.47-.89a3.81,3.81,0,0,1,4.51-.55C274.19,132.86,274.41,133.2,274.33,133.29Z" style="fill:#263238"></path><path d="M255.68,136.49a1.64,1.64,0,1,1-2.16.84A1.63,1.63,0,0,1,255.68,136.49Z" style="fill:#263238"></path><path d="M257.69,136.23c-.15.22-1.36-.48-2.9-.28s-2.56,1.15-2.75,1,0-.45.47-.89a3.83,3.83,0,0,1,4.51-.56C257.55,135.8,257.76,136.13,257.69,136.23Z" style="fill:#263238"></path><path d="M265.59,148.1a7.7,7.7,0,0,1,2.42-.87c.4-.09.7-.23.7-.45a2.18,2.18,0,0,0-.44-1.11l-1.64-3c-2.29-4.23-4-7.75-3.76-7.87s2.24,3.22,4.53,7.45l1.59,3a2.57,2.57,0,0,1,.44,1.64,1,1,0,0,1-.6.74,2.38,2.38,0,0,1-.68.18A7.56,7.56,0,0,1,265.59,148.1Z" style="fill:#263238"></path><path d="M269.07,166.87a26.2,26.2,0,0,1-15.14-2.16s4.54,7.58,15.56,5.06Z" style="fill:#eb996e"></path><path d="M269.64,113.48a4.24,4.24,0,1,0-3.82-7.24,12.45,12.45,0,0,0,2.38-4.61,4.28,4.28,0,0,0-1.73-4.57c-1.5-.84-3.42-.31-4.84.66-2.14,1.47-3.6,3.82-5.84,5.14s-5,1.44-7.58,2.07a13.94,13.94,0,0,0-7.41,4.33,9.38,9.38,0,0,0-2.08,8.15c-3.69.27-7.7,1-10.1,3.83-2,2.37-2.45,5.8-1.85,8.86s2.45,5.72,3.93,8.47h0a6.65,6.65,0,0,0,1.56,2.09l2.92,7.65,4.91-1.07-3.61-16.44s-1.88-6.85,4.22-7.43,15.58,4.54,26.89.52c1.83-.65,3.75-1.25,5.12-2.64a5.46,5.46,0,0,0,1.52-5.33A3.7,3.7,0,0,0,269.64,113.48Z" style="fill:#263238"></path><path d="M233.4,138.49c-.26,0-8.42.51-5.8,9.76s11.1,3.54,11,3.27S233.4,138.49,233.4,138.49Z" style="fill:#ffbe9d"></path><path d="M234.89,149.08s-.13.16-.37.36a1.67,1.67,0,0,1-1.2.36c-1.08-.08-2.34-1.4-2.86-3.05a5.54,5.54,0,0,1-.2-2.43,1.91,1.91,0,0,1,.86-1.58.85.85,0,0,1,1.08.17c.19.22.19.42.24.42s.16-.21,0-.57a1,1,0,0,0-.53-.47,1.25,1.25,0,0,0-.95,0,2.35,2.35,0,0,0-1.28,1.91,5.75,5.75,0,0,0,.17,2.74c.59,1.85,2,3.32,3.49,3.33a1.8,1.8,0,0,0,1.4-.67C234.93,149.31,234.92,149.08,234.89,149.08Z" style="fill:#eb996e"></path><path d="M256.71,129.3c-.17.41-1.94,0-4,.36s-3.69,1.18-4,.83c-.13-.16.12-.63.77-1.15a6.62,6.62,0,0,1,6.16-.92C256.41,128.73,256.79,129.11,256.71,129.3Z" style="fill:#263238"></path><path d="M272,128.27c-.18.4-1.21.35-2.32.68s-2,.85-2.33.6c-.17-.13-.14-.5.18-1a3.21,3.21,0,0,1,1.74-1.15,3.26,3.26,0,0,1,2.09.1C271.82,127.77,272,128.08,272,128.27Z" style="fill:#263238"></path><path d="M248.28,139.16A7.51,7.51,0,0,1,248,138c-.13-.86-.31-2-.53-3.36l0-.15.16,0c3.22-.48,8.05-1.18,13.6-1.94l.26,0,0,.26c.17,1.25.35,2.55.53,3.88a7.44,7.44,0,0,1-.47,4.53,7,7,0,0,1-9.8,3.34,6.88,6.88,0,0,1-3.15-3.58,5.94,5.94,0,0,1-.33-1.27,1.28,1.28,0,0,1,0-.45c.06,0,.11.62.55,1.64a6.87,6.87,0,0,0,3.14,3.34,6.74,6.74,0,0,0,6.55-.24,6.65,6.65,0,0,0,2.61-3,7.09,7.09,0,0,0,.42-4.25c-.18-1.33-.36-2.63-.53-3.88l.29.22c-5.55.74-10.39,1.36-13.63,1.75l.14-.18c.15,1.38.28,2.51.38,3.37A6.53,6.53,0,0,1,248.28,139.16Z" style="fill:#455a64"></path><path d="M266.38,136.7a7,7,0,0,1-.24-1.19c-.14-.86-.32-2-.53-3.36l0-.15.16,0c3.23-.49,8.05-1.19,13.61-1.95l.25,0,0,.26c.18,1.25.35,2.55.54,3.88a7.6,7.6,0,0,1-.47,4.53,7.06,7.06,0,0,1-9.8,3.34,6.84,6.84,0,0,1-3.15-3.58,4.94,4.94,0,0,1-.33-1.27,2.19,2.19,0,0,1,0-.45c.06,0,.12.62.56,1.64a6.79,6.79,0,0,0,3.13,3.34,6.67,6.67,0,0,0,9.16-3.22,7.05,7.05,0,0,0,.42-4.26c-.18-1.33-.36-2.63-.52-3.88l.28.22c-5.55.74-10.39,1.36-13.63,1.75l.14-.18c.16,1.38.29,2.51.38,3.37A6.53,6.53,0,0,1,266.38,136.7Z" style="fill:#455a64"></path><path d="M266.18,135.65a5.33,5.33,0,0,1-2.23.56,5.25,5.25,0,0,1-2.29,0,10.21,10.21,0,0,1,4.52-.61Z" style="fill:#455a64"></path><path d="M247.84,136.69a68.14,68.14,0,0,1-8.27,1.38,68.78,68.78,0,0,1-8.33.87,68.18,68.18,0,0,1,8.26-1.38A64.48,64.48,0,0,1,247.84,136.69Z" style="fill:#455a64"></path><path d="M267.72,151.87c0,.06-.39.31-1.16.48a6.51,6.51,0,0,1-3-.11,6.4,6.4,0,0,1-2.66-1.47c-.57-.54-.8-1-.75-1a11.48,11.48,0,0,0,3.55,2A11.34,11.34,0,0,0,267.72,151.87Z" style="fill:#263238"></path><path d="M235.86,153.09s.21.55-.3,1.26a2,2,0,0,1-3.62-1.45,2,2,0,0,1,.71-1.29c.68-.55,1.27-.42,1.24-.37s-.49.11-1,.64a1.87,1.87,0,0,0-.49,1.07,1.63,1.63,0,0,0,.53,1.27,1.6,1.6,0,0,0,1.3.45,1.81,1.81,0,0,0,1-.55C235.77,153.59,235.77,153.08,235.86,153.09Z" style="fill:#263238"></path><path d="M261.34,148.13c.15,0,.19,1-.64,1.83s-1.85.79-1.83.65.79-.32,1.46-1S261.2,148.11,261.34,148.13Z" style="fill:#263238"></path><path d="M263.34,214.43c-.14,0-1.24-4.62-2.47-10.38s-2.1-10.46-2-10.49,1.25,4.62,2.47,10.38S263.48,214.4,263.34,214.43Z" style="fill:#263238"></path><path d="M263.3,195.17c.07.06-.38.38-.39,1.12a1.48,1.48,0,0,0,.44,1.08,1.33,1.33,0,0,0,2.1-1,1.5,1.5,0,0,0-.53-1,2.27,2.27,0,0,0-1.1-.43c-.05,0,.54-.37,1.32.13a1.79,1.79,0,0,1,.79,1.32,1.7,1.7,0,0,1-1,1.58,1.67,1.67,0,0,1-1.86-.25,1.77,1.77,0,0,1-.49-1.46C262.67,195.35,263.31,195.11,263.3,195.17Z" style="fill:#263238"></path><path d="M264.92,204.08c.06.06-.39.38-.4,1.12a1.42,1.42,0,0,0,.45,1.07,1.2,1.2,0,0,0,1.32.13,1.22,1.22,0,0,0,.77-1.08,1.45,1.45,0,0,0-.53-1,2.27,2.27,0,0,0-1.1-.43c-.05,0,.55-.37,1.32.13a1.77,1.77,0,0,1,.79,1.32,1.67,1.67,0,0,1-1,1.58,1.69,1.69,0,0,1-1.87-.25,1.76,1.76,0,0,1-.48-1.46C264.29,204.26,264.92,204,264.92,204.08Z" style="fill:#263238"></path><path d="M289.84,215.52l24,36.66,31.37-27.59s-36.5-38.77-44.5-42.29Z" style="fill:#FF725E"></path><path d="M303.77,233.84a2.36,2.36,0,0,1-.42-.44l-1.1-1.33c-.95-1.17-2.32-2.86-4-5-.83-1.06-1.72-2.24-2.61-3.55s-1.78-2.76-2.69-4.29a31,31,0,0,1-4.31-10.75,22.6,22.6,0,0,1,.67-11.55A19.7,19.7,0,0,1,294.5,189a16.36,16.36,0,0,1,5.44-3.35,12.75,12.75,0,0,1,1.67-.47,2.71,2.71,0,0,1,.6-.1,2.53,2.53,0,0,1-.57.2,16.12,16.12,0,0,0-1.63.56,16.85,16.85,0,0,0-5.26,3.43,19.5,19.5,0,0,0-4.95,7.81,22.37,22.37,0,0,0-.62,11.29A31.32,31.32,0,0,0,293.39,219c.9,1.53,1.76,3,2.63,4.29s1.75,2.49,2.55,3.57l3.84,5.08,1,1.39A3.38,3.38,0,0,1,303.77,233.84Z" style="fill:#263238"></path><g style="opacity:0.30000000000000004"><path d="M296,224c6.48,15.81,2.28,35.4-10.12,47.15a9.24,9.24,0,0,0-2.46,3,2.82,2.82,0,0,0,.82,3.47,4.83,4.83,0,0,0,2.66.76c6.9-.77,13.67-2,20.57-2.8l-2.36-11.74L301.52,231Z"></path></g></g></svg>