<?xml version="1.0" standalone="no"?>
<!DOCTYPE svg PUBLIC "-//W3C//DTD SVG 20010904//EN"
 "http://www.w3.org/TR/2001/REC-SVG-20010904/DTD/svg10.dtd">
<svg version="1.0" xmlns="http://www.w3.org/2000/svg"
 width="1307.000000pt" height="980.000000pt" viewBox="0 0 1307.000000 980.000000"
 preserveAspectRatio="xMidYMid meet">

<g transform="translate(0.000000,980.000000) scale(0.100000,-0.100000)"
fill="#000000" stroke="none">
<path d="M4746 8335 c-799 -114 -1459 -684 -1618 -1395 -20 -91 -23 -132 -23
-310 0 -252 11 -311 125 -650 43 -129 88 -267 99 -305 89 -306 92 -570 9 -804
-76 -215 -184 -377 -413 -620 -518 -551 -731 -1249 -570 -1871 62 -241 204
-506 388 -727 l77 -93 -394 0 c-345 0 -397 -2 -410 -16 -20 -20 -20 -58 0 -78
14 -15 438 -16 4519 -16 4081 0 4505 1 4519 16 20 20 20 58 0 78 -13 14 -56
16 -316 16 l-300 0 59 68 c232 264 411 578 501 882 54 183 67 275 66 480 0
151 -4 204 -22 287 -76 350 -274 673 -591 963 -391 357 -458 713 -230 1232 22
51 91 192 154 313 150 293 187 408 201 634 14 224 -54 535 -168 768 -366 746
-1113 1209 -1768 1097 -228 -39 -370 -107 -626 -300 -228 -171 -484 -291 -738
-346 -136 -29 -416 -32 -550 -5 -271 55 -559 201 -846 427 -83 66 -263 163
-380 205 -41 15 -127 38 -190 51 -147 32 -412 41 -564 19z m5123 -914 c66 -47
61 167 61 -2713 l0 -2622 -21 -44 c-34 -69 -71 -82 -246 -82 l-143 0 0 -140
c0 -153 -8 -187 -55 -230 l-27 -25 -1691 -3 c-1663 -2 -1693 -2 -1724 18 -71
43 -68 12 -71 635 l-3 560 -185 0 c-180 0 -185 -1 -180 -20 3 -11 8 -87 11
-170 3 -103 2 -139 -5 -115 -5 19 -7 42 -5 50 3 8 0 22 -5 30 -9 13 -11 13
-20 0 -5 -8 -10 -28 -10 -45 l-1 -30 -18 33 -17 33 -11 -93 c-6 -51 -25 -134
-42 -184 -17 -51 -31 -94 -31 -97 0 -7 91 23 106 34 6 5 14 6 17 2 4 -3 7
-150 7 -325 l0 -318 -1050 0 -1050 0 0 150 c0 83 2 150 3 150 2 0 19 -7 37
-16 45 -23 110 -29 154 -14 38 12 216 144 216 160 0 5 -18 34 -39 65 -22 31
-42 62 -43 67 -2 6 -26 -10 -54 -35 -27 -26 -51 -47 -54 -47 -6 0 -84 57 -143
103 -30 24 -39 27 -56 17 -19 -10 -21 -8 -21 21 0 26 -15 48 -89 125 -196 204
-334 409 -410 608 -101 264 -86 474 62 851 100 254 368 753 427 795 86 61 426
167 648 202 61 9 86 18 93 30 5 10 20 18 33 18 23 0 24 3 31 109 l7 108 -48
61 c-65 79 -121 192 -137 272 l-13 65 -50 0 c-58 0 -96 21 -124 68 -43 70 -38
131 15 184 39 39 74 43 123 13 25 -16 32 -26 32 -51 0 -32 0 -32 20 -14 30 27
76 129 96 215 l18 75 82 -3 c93 -4 162 12 256 59 96 48 225 35 282 -30 27 -30
107 -51 193 -51 70 0 73 -1 73 -24 0 -37 26 -102 78 -194 26 -46 54 -97 62
-112 l15 -28 24 19 c15 12 36 19 57 17 38 -2 53 7 37 23 -12 12 -85 8 -115 -5
-14 -6 -16 -2 -12 35 5 49 14 62 54 79 37 15 69 8 105 -26 23 -21 29 -37 33
-79 4 -55 -11 -101 -30 -89 -7 5 -8 2 -4 -5 20 -31 -72 -86 -127 -76 l-32 6
-18 -79 c-22 -98 -72 -179 -168 -274 l-69 -68 7 -110 c4 -77 9 -108 17 -100
16 16 44 12 55 -9 8 -14 35 -22 128 -36 150 -23 355 -73 459 -114 154 -60 222
-119 293 -256 l20 -40 1 1288 c0 1396 -3 1324 54 1377 27 24 33 25 191 28
l164 3 3 159 c3 177 10 198 79 233 32 16 130 17 1714 15 l1680 -3 34 -24z"/>
<path d="M7395 6454 c-345 -53 -613 -174 -832 -379 -289 -268 -452 -619 -470
-1011 -12 -260 37 -486 159 -733 49 -100 50 -104 32 -118 -10 -8 -164 -120
-342 -250 -210 -154 -319 -239 -310 -243 7 -4 83 -31 168 -61 l156 -53 114 90
c63 50 179 141 258 202 l143 113 85 -80 c190 -180 430 -305 697 -363 85 -18
135 -22 297 -23 169 0 209 3 299 23 302 68 513 184 732 402 287 286 429 625
429 1025 0 193 -26 341 -87 504 -72 194 -171 355 -306 497 -218 231 -463 368
-776 435 -93 20 -372 34 -446 23z m389 -280 c427 -88 774 -396 905 -802 45
-138 56 -214 56 -377 -1 -218 -35 -357 -133 -548 -166 -325 -466 -547 -847
-628 -91 -20 -343 -17 -442 4 -487 104 -834 446 -945 932 -27 118 -29 351 -4
470 53 249 160 450 331 621 191 190 437 310 711 344 89 11 278 3 368 -16z"/>
<path d="M7060 5490 l-50 -55 217 -217 c119 -119 215 -219 213 -222 -3 -3
-101 -102 -219 -220 l-214 -215 51 -53 52 -53 220 220 220 220 220 -220 220
-220 52 53 53 52 -220 220 -220 220 219 219 220 220 -52 53 -52 53 -220 -220
-220 -220 -219 219 -220 220 -51 -54z"/>
<path d="M4391 5582 c-15 -36 1 -85 26 -80 25 5 39 51 25 83 -15 33 -37 32
-51 -3z"/>
<path d="M4858 5585 c-14 -32 0 -78 25 -83 34 -7 45 79 13 100 -18 13 -26 9
-38 -17z"/>
<path d="M3932 5583 c2 -13 14 -18 45 -18 23 0 48 -6 55 -13 18 -18 28 -15 28
8 0 26 -29 40 -85 40 -39 0 -46 -3 -43 -17z"/>
<path d="M4628 5105 c-16 -9 -28 -20 -28 -25 0 -13 1 -13 39 6 31 15 59 15
106 -2 19 -6 19 -6 4 10 -23 24 -88 30 -121 11z"/>
<path d="M4645 3019 c-77 -56 -181 -132 -232 -170 -50 -38 -94 -69 -98 -69 -3
0 -18 -11 -33 -25 l-26 -24 27 -29 c15 -15 27 -32 27 -37 0 -5 -17 -26 -37
-47 -20 -21 -35 -39 -32 -41 2 -1 37 -13 78 -26 94 -29 164 -88 159 -134 -4
-36 -44 -70 -83 -69 -29 0 -29 -1 28 -42 20 -15 42 -24 47 -21 6 4 9 3 8 -2
-2 -4 9 -24 25 -44 31 -41 32 -50 13 -87 l-14 -27 39 3 c21 2 43 9 48 16 15
17 2 58 -16 52 -9 -4 -11 -2 -7 6 8 13 -93 108 -114 108 -7 0 -10 5 -7 10 3 6
14 10 24 10 33 0 54 35 52 92 0 39 4 56 19 70 10 10 21 18 24 18 3 0 17 11 32
25 14 13 30 22 35 20 4 -3 11 0 15 6 5 8 2 10 -7 5 -8 -4 -5 -1 5 8 10 8 23
13 29 9 6 -3 7 -1 3 5 -3 6 38 45 96 90 57 44 125 97 153 118 27 22 59 47 69
57 11 9 35 27 53 40 18 12 33 25 33 28 0 4 -29 15 -65 24 -36 10 -65 21 -65
25 0 4 7 29 15 56 8 27 15 54 15 60 0 7 -33 14 -84 18 -46 3 -90 8 -98 11 -7
2 -76 -41 -153 -96z m-135 -559 c0 -5 -5 -10 -11 -10 -5 0 -7 5 -4 10 3 6 8
10 11 10 2 0 4 -4 4 -10z m0 -29 c0 -6 -4 -13 -10 -16 -5 -3 -10 1 -10 9 0 9
5 16 10 16 6 0 10 -4 10 -9z"/>
<path d="M4825 2700 c-3 -6 1 -7 9 -4 18 7 21 14 7 14 -6 0 -13 -4 -16 -10z"/>
<path d="M4723 2628 c-18 -13 -33 -27 -33 -32 0 -5 10 0 23 11 12 11 31 25 42
31 11 6 15 12 10 12 -6 0 -25 -10 -42 -22z"/>
<path d="M5501 2634 c0 -11 3 -14 6 -6 3 7 2 16 -1 19 -3 4 -6 -2 -5 -13z"/>
</g>
</svg>
